<svg width="256" height="44" viewBox="0 0 256 44" fill="none" xmlns="http://www.w3.org/2000/svg">
<path d="M64.62 36.27C63.22 36.27 62.05 35.97 61.11 35.37C60.19 34.77 59.49 33.94 59.01 32.88C58.53 31.82 58.25 30.59 58.17 29.19L61.17 28.38C61.23 29.24 61.36 30.07 61.56 30.87C61.78 31.67 62.13 32.33 62.61 32.85C63.09 33.35 63.76 33.6 64.62 33.6C65.5 33.6 66.16 33.36 66.6 32.88C67.06 32.38 67.29 31.67 67.29 30.75C67.29 29.65 67.04 28.77 66.54 28.11C66.04 27.43 65.41 26.75 64.65 26.07L60.57 22.47C59.77 21.77 59.18 21.01 58.8 20.19C58.42 19.35 58.23 18.32 58.23 17.1C58.23 15.32 58.74 13.94 59.76 12.96C60.78 11.98 62.17 11.49 63.93 11.49C64.89 11.49 65.73 11.62 66.45 11.88C67.19 12.12 67.8 12.5 68.28 13.02C68.78 13.54 69.17 14.2 69.45 15C69.75 15.78 69.95 16.7 70.05 17.76L67.17 18.54C67.11 17.74 66.99 17.01 66.81 16.35C66.63 15.67 66.31 15.13 65.85 14.73C65.41 14.31 64.77 14.1 63.93 14.1C63.09 14.1 62.43 14.33 61.95 14.79C61.49 15.23 61.26 15.89 61.26 16.77C61.26 17.51 61.38 18.12 61.62 18.6C61.88 19.08 62.29 19.57 62.85 20.07L66.96 23.67C67.88 24.47 68.69 25.43 69.39 26.55C70.09 27.65 70.44 28.96 70.44 30.48C70.44 31.68 70.19 32.72 69.69 33.6C69.19 34.46 68.5 35.12 67.62 35.58C66.76 36.04 65.76 36.27 64.62 36.27ZM82.0697 36V11.7H85.4597V23.16L91.0397 11.7H94.1897L89.3897 22.41L94.9697 36H91.6697L87.0197 24.6L85.4597 27.42V36H82.0697ZM109.643 36V27.42L104.393 11.7H107.543L111.263 23.43L114.923 11.7H118.103L112.883 27.42V36H109.643ZM132.037 36V14.22H127.927V11.7H139.417V14.22H135.427V36H132.037ZM150.759 36V11.7H154.149V22.2H160.389V11.7H163.779V36H160.389V24.63H154.149V36H150.759ZM176.576 36V11.7H181.466C183.086 11.7 184.426 11.92 185.486 12.36C186.546 12.78 187.326 13.47 187.826 14.43C188.346 15.37 188.606 16.61 188.606 18.15C188.606 19.09 188.506 19.95 188.306 20.73C188.106 21.49 187.786 22.14 187.346 22.68C186.906 23.2 186.326 23.58 185.606 23.82L189.056 36H185.786L182.606 24.6H179.966V36H176.576ZM179.966 22.17H181.256C182.216 22.17 182.996 22.05 183.596 21.81C184.196 21.57 184.636 21.16 184.916 20.58C185.196 20 185.336 19.19 185.336 18.15C185.336 16.73 185.076 15.71 184.556 15.09C184.036 14.45 183.006 14.13 181.466 14.13H179.966V22.17ZM207.342 36.27C205.702 36.27 204.392 35.95 203.412 35.31C202.432 34.67 201.732 33.76 201.312 32.58C200.892 31.38 200.682 29.98 200.682 28.38V19.17C200.682 17.57 200.892 16.2 201.312 15.06C201.752 13.9 202.452 13.02 203.412 12.42C204.392 11.8 205.702 11.49 207.342 11.49C208.982 11.49 210.282 11.8 211.242 12.42C212.202 13.04 212.892 13.92 213.312 15.06C213.752 16.2 213.972 17.57 213.972 19.17V28.41C213.972 29.99 213.752 31.37 213.312 32.55C212.892 33.73 212.202 34.65 211.242 35.31C210.282 35.95 208.982 36.27 207.342 36.27ZM207.342 33.6C208.242 33.6 208.922 33.42 209.382 33.06C209.842 32.68 210.152 32.16 210.312 31.5C210.472 30.82 210.552 30.03 210.552 29.13V18.48C210.552 17.58 210.472 16.81 210.312 16.17C210.152 15.51 209.842 15.01 209.382 14.67C208.922 14.31 208.242 14.13 207.342 14.13C206.442 14.13 205.752 14.31 205.272 14.67C204.812 15.01 204.502 15.51 204.342 16.17C204.182 16.81 204.102 17.58 204.102 18.48V29.13C204.102 30.03 204.182 30.82 204.342 31.5C204.502 32.16 204.812 32.68 205.272 33.06C205.752 33.42 206.442 33.6 207.342 33.6ZM229.454 36L225.494 11.7H228.314L230.924 29.16L234.194 11.79H236.594L239.894 29.25L242.444 11.7H245.204L241.304 36H238.844L235.454 18L232.034 36H229.454Z" fill="white"/>
<g clip-path="url(#clip0)">
<path d="M5.0696 33.5826C5.29163 26.7965 10.3982 21.1843 15.6159 17.3328C21.3145 13.1511 28.4564 10.1433 35.6352 10.0699C36.6344 10.0699 36.6344 8.5293 35.6352 8.5293C28.0123 8.60266 20.5374 11.7939 14.5057 16.2324C8.95507 20.3407 3.77445 26.3931 3.55242 33.5459C3.51542 34.573 5.0326 34.573 5.0696 33.5826Z" fill="#FA311F"/>
<path d="M8.06701 6.69519C7.91899 8.67597 8.7701 10.9135 9.43617 12.7476C10.6573 16.269 12.2855 19.607 14.2097 22.7982C18.6873 30.2445 25.3481 36.9939 34.0811 39.048C35.0432 39.2681 35.4503 37.8009 34.4882 37.5808C26.0882 35.6 19.8714 29.1441 15.5419 22.0279C13.7287 19.0568 12.1745 15.8655 10.9904 12.5642C10.3613 10.8035 9.47318 8.60261 9.58419 6.69519C9.6582 5.70479 8.14102 5.70479 8.06701 6.69519Z" fill="#FA311F"/>
<path d="M1.77619 17.883C10.1762 17.2961 9.3621 27.4201 10.8053 32.959C11.5454 35.7467 12.7665 38.4245 14.8387 40.4786C17.022 42.6795 20.0564 43.5965 23.0907 43.8166C24.0898 43.89 24.0898 42.3493 23.0907 42.276C19.7233 42.0559 16.726 40.7354 14.6907 37.9476C12.8405 35.4166 12.0634 32.1886 11.5824 29.1441C11.0643 25.9528 10.9903 22.8349 9.25108 20.0105C7.65989 17.3694 4.84756 16.1223 1.77619 16.3424C0.777076 16.4524 0.777076 17.9563 1.77619 17.883Z" fill="#FA311F"/>
<path d="M15.949 3.17383C14.9869 5.44806 14.0248 8.41924 14.3578 11.2437C14.8019 15.0952 17.6882 18.6166 21.4997 19.6437C24.682 20.524 28.0124 20.4874 31.1948 21.3677C35.6353 22.6149 38.0776 25.9162 38.8917 30.3179C39.0768 31.2716 40.5569 30.8681 40.3719 29.9144C39.6318 26.0629 37.7076 22.7249 34.1182 20.8909C31.0838 19.3502 27.5684 19.1302 24.238 18.6533C22.9058 18.4699 21.4997 18.2131 20.2785 17.5895C18.1693 16.4891 16.6151 14.2882 16.023 12.014C15.2459 9.0795 16.282 6.25505 17.3922 3.57732C17.7992 2.69697 16.319 2.29348 15.949 3.17383Z" fill="#FA311F"/>
<path d="M8.28882 6.14425C3.84829 9.5556 0.887941 14.3242 0.147853 19.863C-0.518226 24.8884 0.998955 30.0604 3.70028 34.2787C6.4386 38.4971 10.6201 41.7617 15.4677 43.1923C20.8703 44.8063 26.643 43.7058 31.5276 41.0648C39.9276 36.553 43.554 27.1259 41.2967 18.1023C39.1135 9.51892 31.8606 2.62285 22.7945 1.99927C17.7249 1.70582 12.7293 3.5032 8.43684 6.03421C7.58574 6.54774 8.36283 7.86827 9.21393 7.35473C13.9875 4.53028 19.5382 2.80626 25.1258 3.87001C29.5664 4.71368 33.4888 7.39141 36.1901 10.9862C41.6298 18.139 42.1849 28.7399 36.0791 35.6726C32.3787 39.8543 26.643 42.3486 21.0923 42.4587C15.6527 42.5687 10.6201 40.001 6.99367 36.0394C3.44124 32.1879 1.48001 26.9425 1.55402 21.7338C1.66503 15.8648 4.7734 10.7661 9.36195 7.24469C10.139 6.6211 9.06591 5.55735 8.28882 6.14425Z" fill="#FA311F"/>
</g>
<defs>
<clipPath id="clip0">
<rect y="2" width="42" height="42" fill="white"/>
</clipPath>
</defs>
</svg>
